<svg xmlns="http://www.w3.org/2000/svg" viewBox="0 0 360 80" width="360" height="80" role="img" aria-labelledby="c6l-title">
  <title id="c6l-title">PolicyLab Logo - Balance Scales (Light)</title>
  <defs>
    <linearGradient id="c6l-grad" x1="0%" y1="0%" x2="100%" y2="100%">
      <stop offset="0%" stop-color="#4f46e5"/>
      <stop offset="100%" stop-color="#4338ca"/>
    </linearGradient>
  </defs>

  <g id="c6l-icon" transform="translate(38, 8)">
    <rect x="-2" y="12" width="4" height="48" rx="2" fill="url(#c6l-grad)" opacity="0.7"/>
    <rect x="-14" y="58" width="28" height="4" rx="2" fill="#4f46e5" opacity="0.5"/>
    <circle cx="0" cy="12" r="4" fill="#4f46e5" opacity="0.9"/>
    <circle cx="0" cy="12" r="2" fill="#ffffff"/>

    <line x1="-28" y1="20" x2="0" y2="14" stroke="#4f46e5" stroke-width="2" stroke-linecap="round" opacity="0.7"/>
    <line x1="0" y1="14" x2="28" y2="18" stroke="#4f46e5" stroke-width="2" stroke-linecap="round" opacity="0.7"/>

    <path d="M-34,22 Q-28,28 -22,22" stroke="#6366f1" stroke-width="1.5" fill="none" stroke-linecap="round"/>
    <line x1="-28" y1="20" x2="-34" y2="22" stroke="#4f46e5" stroke-width="0.8" opacity="0.4"/>
    <line x1="-28" y1="20" x2="-22" y2="22" stroke="#4f46e5" stroke-width="0.8" opacity="0.4"/>

    <path d="M22,20 Q28,26 34,20" stroke="#6366f1" stroke-width="1.5" fill="none" stroke-linecap="round"/>
    <line x1="28" y1="18" x2="22" y2="20" stroke="#4f46e5" stroke-width="0.8" opacity="0.4"/>
    <line x1="28" y1="18" x2="34" y2="20" stroke="#4f46e5" stroke-width="0.8" opacity="0.4"/>

    <circle cx="-30" cy="24" r="1.5" fill="#4f46e5" opacity="0.6"/>
    <circle cx="-26" cy="25" r="1" fill="#6366f1" opacity="0.5"/>
    <circle cx="-28" cy="23" r="1" fill="#4338ca" opacity="0.4"/>
    <circle cx="28" cy="22" r="1.5" fill="#4f46e5" opacity="0.5"/>

    <rect x="4" y="26" width="3" height="1.5" rx="0.5" fill="#4f46e5" opacity="0.2"/>
    <rect x="4" y="32" width="5" height="1.5" rx="0.5" fill="#4f46e5" opacity="0.18"/>
    <rect x="4" y="38" width="2" height="1.5" rx="0.5" fill="#4f46e5" opacity="0.2"/>
    <rect x="4" y="44" width="4" height="1.5" rx="0.5" fill="#4f46e5" opacity="0.15"/>
    <rect x="4" y="50" width="3" height="1.5" rx="0.5" fill="#4f46e5" opacity="0.18"/>
  </g>

  <g transform="translate(84, 0)">
    <text x="0" y="42" font-family="Inter, -apple-system, BlinkMacSystemFont, 'Segoe UI', sans-serif" font-size="32" font-weight="700" fill="#1f2937" letter-spacing="-0.5">
      Policy</text>
    <text x="116" y="42" font-family="Inter, -apple-system, BlinkMacSystemFont, 'Segoe UI', sans-serif" font-size="32" font-weight="700" fill="#4f46e5" letter-spacing="-0.5">
      Lab</text>
    <text x="0" y="62" font-family="Inter, -apple-system, BlinkMacSystemFont, 'Segoe UI', sans-serif" font-size="11" font-weight="400" fill="#6b7280" letter-spacing="3">
      POLICY SIMULATION</text>
  </g>
</svg>
